<svg width="140" height="139" viewBox="0 0 140 139" fill="none" xmlns="http://www.w3.org/2000/svg">
<rect width="140" height="139" rx="16" fill="#D0C9C9"/>
<path d="M70 63.875C68.8969 63.875 67.8046 64.0932 66.7855 64.5173C65.7663 64.9413 64.8403 65.5628 64.0603 66.3463C63.2803 67.1298 62.6616 68.0599 62.2394 69.0836C61.8173 70.1073 61.6 71.2045 61.6 72.3125C61.6 73.4205 61.8173 74.5177 62.2394 75.5414C62.6616 76.5651 63.2803 77.4952 64.0603 78.2787C64.8403 79.0622 65.7663 79.6837 66.7855 80.1077C67.8046 80.5318 68.8969 80.75 70 80.75C72.2278 80.75 74.3644 79.8611 75.9397 78.2787C77.515 76.6964 78.4 74.5503 78.4 72.3125C78.4 70.0747 77.515 67.9286 75.9397 66.3463C74.3644 64.7639 72.2278 63.875 70 63.875ZM92.4 55.4375H85.68C85.1964 55.4153 84.7297 55.2518 84.3372 54.9671C83.9448 54.6823 83.6437 54.2886 83.4708 53.8344L81.732 48.6003C81.5579 48.1466 81.256 47.7536 80.8632 47.4694C80.4703 47.1852 80.0036 47.0221 79.52 47H60.48C59.556 47 58.5592 47.72 58.2708 48.5975L56.5292 53.8344C56.356 54.2884 56.0548 54.6819 55.6624 54.9666C55.2701 55.2513 54.8035 55.415 54.32 55.4375H47.6C44.52 55.4375 42 57.9688 42 61.0625V86.375C42 89.4688 44.52 92 47.6 92H92.4C95.48 92 98 89.4688 98 86.375V61.0625C98 57.9688 95.48 55.4375 92.4 55.4375ZM70 86.375C66.287 86.375 62.726 84.8934 60.1005 82.2562C57.475 79.619 56 76.0421 56 72.3125C56 68.5829 57.475 65.006 60.1005 62.3688C62.726 59.7316 66.287 58.25 70 58.25C73.713 58.25 77.274 59.7316 79.8995 62.3688C82.525 65.006 84 68.5829 84 72.3125C84 76.0421 82.525 79.619 79.8995 82.2562C77.274 84.8934 73.713 86.375 70 86.375ZM91 64.4375C90.4802 64.4375 89.9816 64.2301 89.6141 63.8609C89.2465 63.4917 89.04 62.9909 89.04 62.4688C89.04 61.9466 89.2465 61.4458 89.6141 61.0766C89.9816 60.7074 90.4802 60.5 91 60.5C91.5198 60.5 92.0184 60.7074 92.3859 61.0766C92.7535 61.4458 92.96 61.9466 92.96 62.4688C92.96 62.9909 92.7535 63.4917 92.3859 63.8609C92.0184 64.2301 91.5198 64.4375 91 64.4375Z" fill="#7B7474"/>
</svg>
