<svg width="390" height="281" viewBox="0 0 390 281" fill="none" xmlns="http://www.w3.org/2000/svg">
<g filter="url(#filter0_i_190_153)">
<path fill-rule="evenodd" clip-rule="evenodd" d="M0 280.233C5.40993e-05 229.348 -2.31854e-05 211.538 3.09139e-05 168.795C4.96242 165.897 3.16794 166.727 8.55266 164.119C13.9374 161.415 19.4277 158.856 25.0236 156.442C30.6195 154.028 36.2681 151.758 41.9696 149.634C47.6711 147.413 53.3725 145.385 59.074 143.55C64.6699 141.619 70.1602 139.88 75.5449 138.335C81.0352 136.79 86.4199 135.342 91.6991 133.99C96.8726 132.638 101.993 131.382 107.061 130.223C112.129 128.968 117.145 127.761 122.107 126.602C127.069 125.443 131.979 124.284 136.836 123.126C141.693 121.967 146.497 120.711 151.248 119.359C155.999 118.007 160.75 116.559 165.501 115.014C170.253 113.372 175.004 111.634 179.755 109.799C184.506 107.868 189.258 105.743 194.009 103.426C198.76 101.108 203.564 98.5488 208.421 95.7483C213.172 92.9478 218.029 89.8576 222.991 86.4776C227.848 83.0977 232.758 79.5247 237.72 75.7585C242.683 71.8957 247.645 67.9847 252.607 64.0253C257.57 59.9694 262.532 55.9135 267.495 51.8576C272.457 47.7051 277.367 43.6492 282.223 39.6899C287.08 35.7306 291.884 31.9644 296.635 28.3913C301.387 24.7217 306.032 21.2935 310.572 18.1067C315.112 15.0165 319.547 12.216 323.876 9.7052C328.31 7.29097 332.586 5.26302 336.704 3.62134C340.822 2.07624 344.781 1.01398 348.582 0.434561C352.383 -0.144854 356.026 -0.144854 359.51 0.434561C362.994 1.11054 366.32 2.26937 369.487 3.91105C372.655 5.64929 375.611 7.8221 378.356 10.4295C381.207 13.0368 383.847 16.0305 386.275 19.4104C388.809 22.7903 387.888 22.2596 390 26.3155C390 216.482 390 164.119 390 280.233C290.727 280.233 179.805 280.233 0 280.233Z" fill="#D56C06" fill-opacity="0.14"/>
</g>
<g filter="url(#filter1_i_190_153)">
<path fill-rule="evenodd" clip-rule="evenodd" d="M0 280.959C2.32754e-06 203.632 0.000373313 84.2951 1.95097e-05 26.3389C5.85501 25.6682 17.5677 23.6522 23.3891 23.3266C29.2104 23.001 34.9188 22.9339 40.5144 23.1253C46.1267 23.1442 51.5781 23.4646 56.8685 24.0864C62.255 24.6223 67.4012 25.3732 72.3072 26.3389C77.2132 27.3046 81.975 28.3994 86.5927 29.623C91.2897 30.9332 95.851 32.2861 100.276 33.6817C104.685 35.2499 109.006 36.8177 113.239 38.3852C117.377 40.0388 121.505 41.7785 125.626 43.6046C129.763 45.2581 133.852 46.9546 137.893 48.6941C141.934 50.4336 145.936 52.1297 149.897 53.7827C153.859 55.4356 157.869 57.0455 161.927 58.6125C165.906 60.0928 169.98 61.4873 174.151 62.7957C178.243 64.0176 182.478 65.1105 186.858 66.0745C191.063 67.0379 195.459 67.8293 200.048 68.4488C204.558 68.9818 209.172 69.3425 213.89 69.531C218.609 69.7195 223.432 69.7357 228.359 69.5797C233.191 69.5097 238.167 69.3106 243.286 68.9827C248.406 68.6547 253.526 68.3268 258.646 67.9988C263.862 67.5849 269.078 67.171 274.294 66.757C279.606 66.2571 284.909 65.8435 290.205 65.5161C295.5 65.1888 300.787 64.9477 306.065 64.7928C311.343 64.638 316.565 64.6124 321.731 64.7161C327.072 64.8203 332.308 65.0968 337.44 65.5456C342.572 65.9943 347.678 66.7018 352.76 67.6682C357.841 68.6345 362.809 69.8594 367.665 71.3427C372.52 72.826 377.303 74.6111 382.012 76.6981C386.625 78.8709 389.89 80.0238 389.89 83.7948C389.89 83.7948 390.137 203.394 389.89 280.959C389.89 281.051 375.206 280.959 367.745 280.959C261.277 280.959 168.615 280.959 0 280.959Z" fill="#D56C06" fill-opacity="0.31"/>
</g>
<defs>
<filter id="filter0_i_190_153" x="-138.3" y="0" width="528.3" height="305.233" filterUnits="userSpaceOnUse" color-interpolation-filters="sRGB">
<feFlood flood-opacity="0" result="BackgroundImageFix"/>
<feBlend mode="normal" in="SourceGraphic" in2="BackgroundImageFix" result="shape"/>
<feColorMatrix in="SourceAlpha" type="matrix" values="0 0 0 0 0 0 0 0 0 0 0 0 0 0 0 0 0 0 127 0" result="hardAlpha"/>
<feOffset dx="-171" dy="25"/>
<feGaussianBlur stdDeviation="69.15"/>
<feComposite in2="hardAlpha" operator="arithmetic" k2="-1" k3="1"/>
<feColorMatrix type="matrix" values="0 0 0 0 1 0 0 0 0 1 0 0 0 0 1 0 0 0 0.25 0"/>
<feBlend mode="normal" in2="shape" result="effect1_innerShadow_190_153"/>
</filter>
<filter id="filter1_i_190_153" x="0" y="23.019" width="390" height="261.981" filterUnits="userSpaceOnUse" color-interpolation-filters="sRGB">
<feFlood flood-opacity="0" result="BackgroundImageFix"/>
<feBlend mode="normal" in="SourceGraphic" in2="BackgroundImageFix" result="shape"/>
<feColorMatrix in="SourceAlpha" type="matrix" values="0 0 0 0 0 0 0 0 0 0 0 0 0 0 0 0 0 0 127 0" result="hardAlpha"/>
<feOffset dy="4"/>
<feGaussianBlur stdDeviation="44.05"/>
<feComposite in2="hardAlpha" operator="arithmetic" k2="-1" k3="1"/>
<feColorMatrix type="matrix" values="0 0 0 0 1 0 0 0 0 1 0 0 0 0 1 0 0 0 0.25 0"/>
<feBlend mode="normal" in2="shape" result="effect1_innerShadow_190_153"/>
</filter>
</defs>
</svg>
