<svg width="1724" height="151" viewBox="0 0 1724 151" fill="none" xmlns="http://www.w3.org/2000/svg">
<g filter="url(#filter0_i_38_5)">
<path fill-rule="evenodd" clip-rule="evenodd" d="M0.00244141 151.019C0.00268075 123.597 0.00233883 113.999 0.00257817 90.964C21.9569 89.4027 14.0179 89.8496 37.8407 88.4444C61.6635 86.9873 85.9535 85.6082 110.711 84.3071C135.468 83.0061 160.458 81.7831 185.682 80.6382C210.907 79.4413 236.131 78.3484 261.355 77.3596C286.112 76.3188 310.402 75.382 334.225 74.5494C358.515 73.7167 382.337 72.9361 405.693 72.2075C428.582 71.4789 451.237 70.8024 473.658 70.1779C496.08 69.5014 518.268 68.8508 540.222 68.2263C562.176 67.6018 583.897 66.9773 605.385 66.3528C626.872 65.7283 648.126 65.0518 669.146 64.3232C690.166 63.5946 711.186 62.814 732.206 61.9814C753.226 61.0967 774.246 60.1599 795.267 59.1711C816.287 58.1303 837.307 56.9854 858.327 55.7364C879.347 54.4874 900.601 53.1083 922.088 51.5991C943.108 50.0899 964.596 48.4246 986.55 46.6031C1008.04 44.7817 1029.76 42.8561 1051.71 40.8265C1073.67 38.7449 1095.62 36.6372 1117.58 34.5035C1139.53 32.3177 1161.48 30.132 1183.44 27.9463C1205.39 25.7085 1227.11 23.5227 1248.6 21.389C1270.09 19.2553 1291.34 17.2257 1312.36 15.3002C1333.38 13.3226 1353.94 11.4751 1374.02 9.75777C1394.11 8.09244 1413.73 6.58324 1432.88 5.23017C1452.5 3.92913 1471.42 2.83626 1489.63 1.95155C1507.85 1.11889 1525.37 0.546435 1542.18 0.234186C1559 -0.0780621 1575.11 -0.0780621 1590.53 0.234186C1605.94 0.598476 1620.66 1.22297 1634.67 2.10768C1648.69 3.04442 1661.76 4.21536 1673.91 5.62048C1686.52 7.02559 1698.2 8.63888 1708.94 10.4603C1720.15 12.2818 1716.08 11.9958 1725.42 14.1815C1725.42 116.663 1725.42 88.4444 1725.42 151.019C1286.22 151.019 795.488 151.019 0.00244141 151.019Z" fill="#D56C06" fill-opacity="0.14"/>
</g>
<g filter="url(#filter1_i_38_5)">
<path fill-rule="evenodd" clip-rule="evenodd" d="M0 151.019C1.03003e-05 109.347 0.00165206 45.036 8.6338e-05 13.8032C25.9107 13.4418 77.7439 12.3554 103.506 12.1799C129.268 12.0044 154.53 11.9683 179.292 12.0714C204.129 12.0816 228.253 12.2543 251.665 12.5894C275.503 12.8782 298.277 13.2828 319.988 13.8032C341.699 14.3237 362.772 14.9136 383.207 15.5731C403.993 16.2791 424.178 17.0082 443.763 17.7603C463.273 18.6054 482.395 19.4503 501.129 20.2951C519.437 21.1861 537.709 22.1237 555.943 23.1078C574.252 23.9989 592.348 24.9131 610.231 25.8505C628.114 26.7879 645.822 27.702 663.355 28.5928C680.887 29.4835 698.632 30.3511 716.59 31.1956C734.197 31.9934 752.229 32.7448 770.687 33.45C788.793 34.1084 807.538 34.6974 826.92 35.2169C845.527 35.7361 864.984 36.1626 885.291 36.4964C905.248 36.7836 925.667 36.9781 946.548 37.0796C967.43 37.1812 988.774 37.1899 1010.58 37.1059C1031.96 37.0681 1053.98 36.9609 1076.64 36.7841C1099.3 36.6074 1121.95 36.4307 1144.61 36.2539C1167.69 36.0309 1190.77 35.8078 1213.86 35.5847C1237.37 35.3153 1260.84 35.0924 1284.27 34.916C1307.7 34.7396 1331.1 34.6096 1354.46 34.5262C1377.82 34.4428 1400.93 34.429 1423.78 34.4848C1447.42 34.541 1470.59 34.69 1493.3 34.9319C1516.01 35.1737 1538.61 35.555 1561.1 36.0757C1583.59 36.5965 1605.57 37.2566 1627.06 38.0559C1648.55 38.8553 1669.71 39.8173 1690.55 40.942C1710.97 42.1129 1725.42 42.7342 1725.42 44.7664C1725.42 44.7664 1726.51 109.219 1725.42 151.019C1725.42 151.068 1660.43 151.019 1627.41 151.019C1156.25 151.019 746.188 151.019 0 151.019Z" fill="#D56C06" fill-opacity="0.31"/>
</g>
<defs>
<filter id="filter0_i_38_5" x="-138.298" y="0" width="1863.72" height="176.019" filterUnits="userSpaceOnUse" color-interpolation-filters="sRGB">
<feFlood flood-opacity="0" result="BackgroundImageFix"/>
<feBlend mode="normal" in="SourceGraphic" in2="BackgroundImageFix" result="shape"/>
<feColorMatrix in="SourceAlpha" type="matrix" values="0 0 0 0 0 0 0 0 0 0 0 0 0 0 0 0 0 0 127 0" result="hardAlpha"/>
<feOffset dx="-171" dy="25"/>
<feGaussianBlur stdDeviation="69.15"/>
<feComposite in2="hardAlpha" operator="arithmetic" k2="-1" k3="1"/>
<feColorMatrix type="matrix" values="0 0 0 0 1 0 0 0 0 1 0 0 0 0 1 0 0 0 0.25 0"/>
<feBlend mode="normal" in2="shape" result="effect1_innerShadow_38_5"/>
</filter>
<filter id="filter1_i_38_5" x="0" y="12.0142" width="1725.9" height="143.027" filterUnits="userSpaceOnUse" color-interpolation-filters="sRGB">
<feFlood flood-opacity="0" result="BackgroundImageFix"/>
<feBlend mode="normal" in="SourceGraphic" in2="BackgroundImageFix" result="shape"/>
<feColorMatrix in="SourceAlpha" type="matrix" values="0 0 0 0 0 0 0 0 0 0 0 0 0 0 0 0 0 0 127 0" result="hardAlpha"/>
<feOffset dy="4"/>
<feGaussianBlur stdDeviation="44.05"/>
<feComposite in2="hardAlpha" operator="arithmetic" k2="-1" k3="1"/>
<feColorMatrix type="matrix" values="0 0 0 0 1 0 0 0 0 1 0 0 0 0 1 0 0 0 0.25 0"/>
<feBlend mode="normal" in2="shape" result="effect1_innerShadow_38_5"/>
</filter>
</defs>
</svg>
