<svg width="90" height="55" viewBox="0 0 90 55" fill="none" xmlns="http://www.w3.org/2000/svg">
<rect width="90" height="55" rx="16" fill="#97BF0C"/>
<path d="M43.4572 26.32C42.9932 26.656 42.5372 26.936 42.0892 27.16C41.6092 27.4 41.1052 27.592 40.5772 27.736C40.0172 27.896 39.4332 28.008 38.8252 28.072C38.1372 28.152 37.4732 28.192 36.8332 28.192C35.6012 28.192 34.4412 27.968 33.3532 27.52C32.2652 27.072 31.3452 26.464 30.5932 25.696C29.7932 24.88 29.1852 23.944 28.7692 22.888C28.3372 21.8 28.1212 20.608 28.1212 19.312C28.1212 17.968 28.3292 16.776 28.7452 15.736C29.1772 14.648 29.7852 13.712 30.5692 12.928C31.3212 12.16 32.2652 11.552 33.4012 11.104C34.4572 10.704 35.6492 10.488 36.9772 10.456H37.1452C38.9692 10.456 41.0172 10.872 43.2892 11.704V16.12H41.8972C41.6092 16.12 41.4252 15.976 41.3452 15.688C41.2972 15.464 41.2252 14.84 41.1292 13.816C39.9452 13.416 38.5772 13.216 37.0252 13.216C36.1932 13.216 35.4252 13.36 34.7212 13.648C34.0172 13.936 33.4252 14.344 32.9452 14.872C32.4492 15.416 32.0732 16.056 31.8172 16.792C31.5452 17.56 31.4092 18.4 31.4092 19.312C31.4092 20.336 31.5532 21.232 31.8412 22C32.1292 22.8 32.5212 23.456 33.0172 23.968C33.5292 24.496 34.1292 24.904 34.8172 25.192C35.5212 25.48 36.2812 25.624 37.0972 25.624C37.7692 25.624 38.4012 25.56 38.9932 25.432C39.5212 25.304 40.0332 25.12 40.5292 24.88V21.736H38.3692C38.1612 21.736 37.9932 21.672 37.8652 21.544C37.7532 21.432 37.6972 21.296 37.6972 21.136V19.312H43.4572V26.32ZM61.8616 19.312C61.8616 21.024 61.4856 22.552 60.7336 23.896C59.9976 25.24 58.9576 26.296 57.6136 27.064C56.2856 27.816 54.7736 28.192 53.0776 28.192C51.3816 28.192 49.8616 27.816 48.5176 27.064C47.1896 26.312 46.1496 25.264 45.3976 23.92C44.6456 22.576 44.2696 21.04 44.2696 19.312C44.2696 17.584 44.6456 16.048 45.3976 14.704C46.1496 13.36 47.1896 12.32 48.5176 11.584C49.8616 10.832 51.3816 10.456 53.0776 10.456C54.7896 10.456 56.3096 10.84 57.6376 11.608C58.9816 12.376 60.0216 13.432 60.7576 14.776C61.4936 16.12 61.8616 17.632 61.8616 19.312ZM58.5496 19.312C58.5496 17.472 58.0696 16 57.1096 14.896C56.1656 13.776 54.8216 13.216 53.0776 13.216C51.3016 13.216 49.9336 13.776 48.9736 14.896C48.0296 16.016 47.5576 17.488 47.5576 19.312C47.5576 21.168 48.0376 22.656 48.9976 23.776C49.9576 24.88 51.3176 25.432 53.0776 25.432C54.8376 25.432 56.1896 24.872 57.1336 23.752C58.0776 22.632 58.5496 21.152 58.5496 19.312ZM24.3286 42.83C24.5453 42.882 24.6536 43.0163 24.6536 43.233V44H22.0666V39.762C22.0666 39.3633 21.9713 39.047 21.7806 38.813C21.5986 38.5877 21.317 38.475 20.9356 38.475C20.6583 38.475 20.3983 38.54 20.1556 38.67C19.8956 38.8087 19.666 38.9777 19.4666 39.177V42.713L19.8436 42.778L20.0386 42.817L20.1166 42.83C20.3333 42.882 20.4416 43.0163 20.4416 43.233V44H16.8796V43.233C16.8796 43.0163 16.988 42.882 17.2046 42.83L17.2826 42.817L17.4776 42.778L17.8546 42.713V38.618L17.4776 38.553C17.4343 38.5443 17.3953 38.5357 17.3606 38.527C17.3346 38.5183 17.3086 38.514 17.2826 38.514L17.2046 38.501C16.988 38.449 16.8796 38.3147 16.8796 38.098V37.331H18.8426C19.042 37.331 19.1763 37.4307 19.2456 37.63L19.3626 38.15C19.484 38.0113 19.6226 37.8857 19.7786 37.773C19.9 37.6777 20.0603 37.5823 20.2596 37.487C20.485 37.383 20.6626 37.318 20.7926 37.292C21.0093 37.2487 21.2173 37.227 21.4166 37.227C21.798 37.227 22.123 37.2877 22.3916 37.409C22.643 37.513 22.877 37.6863 23.0936 37.929C23.2756 38.1457 23.4186 38.4143 23.5226 38.735C23.618 39.021 23.6656 39.3633 23.6656 39.762V42.713L24.0556 42.778C24.099 42.7867 24.1336 42.7953 24.1596 42.804C24.1943 42.8127 24.2246 42.817 24.2506 42.817L24.3286 42.83ZM31.0983 42.817C31.3149 42.869 31.4233 43.0033 31.4233 43.22V43.987H29.8893C29.7246 43.987 29.6033 43.9653 29.5253 43.922C29.4386 43.8873 29.3736 43.792 29.3303 43.636L29.1873 43.168C29.0139 43.3327 28.8493 43.467 28.6933 43.571C28.5719 43.6577 28.4029 43.753 28.1863 43.857C28.0303 43.9263 27.8483 43.9827 27.6403 44.026C27.4236 44.0693 27.2069 44.091 26.9903 44.091C26.7043 44.091 26.4443 44.052 26.2103 43.974C25.9589 43.8873 25.7553 43.7747 25.5993 43.636C25.4173 43.4713 25.2829 43.2807 25.1963 43.064C25.1009 42.83 25.0533 42.57 25.0533 42.284C25.0533 42.024 25.1183 41.7727 25.2483 41.53C25.3783 41.2787 25.5993 41.0577 25.9113 40.867C26.2406 40.659 26.6479 40.4943 27.1333 40.373C27.6446 40.243 28.2816 40.178 29.0443 40.178V39.788C29.0443 39.3547 28.9489 39.021 28.7583 38.787C28.5763 38.5703 28.3033 38.462 27.9393 38.462C27.6619 38.462 27.4453 38.4923 27.2893 38.553C27.0899 38.631 26.9383 38.7003 26.8343 38.761L26.4833 38.956C26.3879 39.0167 26.2709 39.047 26.1323 39.047C26.0196 39.047 25.9243 39.021 25.8463 38.969C25.7943 38.9343 25.7336 38.865 25.6643 38.761L25.3653 38.254C26.1453 37.5433 27.0683 37.188 28.1343 37.188C28.5243 37.188 28.8753 37.253 29.1873 37.383C29.4906 37.513 29.7463 37.6907 29.9543 37.916C30.1883 38.1847 30.3529 38.4577 30.4483 38.735C30.5523 39.047 30.6043 39.3937 30.6043 39.775V42.726L30.9553 42.791L31.0983 42.817ZM29.0443 41.153C28.5589 41.153 28.1689 41.1833 27.8743 41.244C27.5536 41.3133 27.2979 41.3913 27.1073 41.478C26.9166 41.5647 26.7823 41.6687 26.7043 41.79C26.6263 41.9027 26.5873 42.037 26.5873 42.193C26.5873 42.4877 26.6696 42.6913 26.8343 42.804C27.0076 42.9253 27.2243 42.986 27.4843 42.986C27.6489 42.986 27.8006 42.973 27.9393 42.947C28.0866 42.921 28.2209 42.8733 28.3423 42.804C28.4983 42.7173 28.6153 42.6437 28.6933 42.583C28.8146 42.4877 28.9316 42.3837 29.0443 42.271V41.153ZM42.9216 42.83C43.1382 42.882 43.2466 43.0163 43.2466 43.233V44H40.6596V39.762C40.6596 39.3287 40.5686 39.008 40.3866 38.8C40.2046 38.5833 39.9316 38.475 39.5676 38.475C39.4202 38.475 39.2642 38.5053 39.0996 38.566C38.9609 38.618 38.8396 38.696 38.7356 38.8C38.6489 38.8867 38.5666 39.021 38.4886 39.203C38.4279 39.3503 38.3976 39.5367 38.3976 39.762V42.713L38.7746 42.778L38.9696 42.817L39.0476 42.83C39.2642 42.882 39.3726 43.0163 39.3726 43.233V44H36.7856V39.762C36.7856 39.32 36.6946 38.995 36.5126 38.787C36.3306 38.579 36.0662 38.475 35.7196 38.475C35.4856 38.475 35.2689 38.5313 35.0696 38.644C34.8876 38.748 34.7012 38.9083 34.5106 39.125V42.713L34.8876 42.778L35.0826 42.817L35.1606 42.83C35.3772 42.882 35.4856 43.0163 35.4856 43.233V44H31.9236V43.233C31.9236 43.0163 32.0319 42.882 32.2486 42.83L32.3266 42.817C32.3526 42.817 32.3786 42.8127 32.4046 42.804C32.4392 42.7953 32.4782 42.7867 32.5216 42.778L32.8986 42.713V38.618L32.5216 38.553C32.4782 38.5443 32.4392 38.5357 32.4046 38.527C32.3786 38.5183 32.3526 38.514 32.3266 38.514L32.2486 38.501C32.0232 38.449 31.9106 38.3147 31.9106 38.098V37.331H33.8866C34.0859 37.331 34.2202 37.4307 34.2896 37.63L34.3936 38.124C34.5496 37.9507 34.6709 37.8293 34.7576 37.76C34.8789 37.6647 35.0176 37.5737 35.1736 37.487C35.3122 37.409 35.4682 37.344 35.6416 37.292C35.7802 37.2487 35.9622 37.227 36.1876 37.227C36.6209 37.227 36.9676 37.3397 37.2276 37.565C37.5049 37.8077 37.7086 38.111 37.8386 38.475C37.9426 38.2497 38.0726 38.059 38.2286 37.903C38.3672 37.7643 38.5362 37.6387 38.7356 37.526C38.8829 37.4393 39.0822 37.3657 39.3336 37.305C39.5416 37.253 39.7539 37.227 39.9706 37.227C40.3432 37.227 40.6682 37.2833 40.9456 37.396C41.2489 37.5173 41.4916 37.682 41.6736 37.89C41.8642 38.1067 42.0116 38.371 42.1156 38.683C42.2196 38.995 42.2716 39.3547 42.2716 39.762V42.713L42.6486 42.778C42.6919 42.7867 42.7266 42.7953 42.7526 42.804C42.7872 42.8127 42.8176 42.817 42.8436 42.817L42.9216 42.83ZM54.2134 42.83C54.4301 42.882 54.5384 43.0163 54.5384 43.233V44H51.9514V39.762C51.9514 39.3633 51.8561 39.047 51.6654 38.813C51.4834 38.5877 51.2017 38.475 50.8204 38.475C50.5431 38.475 50.2831 38.54 50.0404 38.67C49.7804 38.8087 49.5507 38.9777 49.3514 39.177V42.713L49.7284 42.778L49.9234 42.817L50.0014 42.83C50.2181 42.882 50.3264 43.0163 50.3264 43.233V44H46.7644V43.233C46.7644 43.0163 46.8727 42.882 47.0894 42.83L47.1674 42.817L47.3624 42.778L47.7394 42.713V38.618L47.3624 38.553C47.3191 38.5443 47.2801 38.5357 47.2454 38.527C47.2194 38.5183 47.1934 38.514 47.1674 38.514L47.0894 38.501C46.8727 38.449 46.7644 38.3147 46.7644 38.098V37.331H48.7274C48.9267 37.331 49.0611 37.4307 49.1304 37.63L49.2474 38.15C49.3687 38.0113 49.5074 37.8857 49.6634 37.773C49.7847 37.6777 49.9451 37.5823 50.1444 37.487C50.3697 37.383 50.5474 37.318 50.6774 37.292C50.8941 37.2487 51.1021 37.227 51.3014 37.227C51.6827 37.227 52.0077 37.2877 52.2764 37.409C52.5277 37.513 52.7617 37.6863 52.9784 37.929C53.1604 38.1457 53.3034 38.4143 53.4074 38.735C53.5027 39.021 53.5504 39.3633 53.5504 39.762V42.713L53.9404 42.778C53.9837 42.7867 54.0184 42.7953 54.0444 42.804C54.0791 42.8127 54.1094 42.817 54.1354 42.817L54.2134 42.83ZM60.983 42.817C61.1997 42.869 61.308 43.0033 61.308 43.22V43.987H59.774C59.6094 43.987 59.488 43.9653 59.41 43.922C59.3234 43.8873 59.2584 43.792 59.215 43.636L59.072 43.168C58.8987 43.3327 58.734 43.467 58.578 43.571C58.4567 43.6577 58.2877 43.753 58.071 43.857C57.915 43.9263 57.733 43.9827 57.525 44.026C57.3084 44.0693 57.0917 44.091 56.875 44.091C56.589 44.091 56.329 44.052 56.095 43.974C55.8437 43.8873 55.64 43.7747 55.484 43.636C55.302 43.4713 55.1677 43.2807 55.081 43.064C54.9857 42.83 54.938 42.57 54.938 42.284C54.938 42.024 55.003 41.7727 55.133 41.53C55.263 41.2787 55.484 41.0577 55.796 40.867C56.1254 40.659 56.5327 40.4943 57.018 40.373C57.5294 40.243 58.1664 40.178 58.929 40.178V39.788C58.929 39.3547 58.8337 39.021 58.643 38.787C58.461 38.5703 58.188 38.462 57.824 38.462C57.5467 38.462 57.33 38.4923 57.174 38.553C56.9747 38.631 56.823 38.7003 56.719 38.761L56.368 38.956C56.2727 39.0167 56.1557 39.047 56.017 39.047C55.9044 39.047 55.809 39.021 55.731 38.969C55.679 38.9343 55.6184 38.865 55.549 38.761L55.25 38.254C56.03 37.5433 56.953 37.188 58.019 37.188C58.409 37.188 58.76 37.253 59.072 37.383C59.3754 37.513 59.631 37.6907 59.839 37.916C60.073 38.1847 60.2377 38.4577 60.333 38.735C60.437 39.047 60.489 39.3937 60.489 39.775V42.726L60.84 42.791L60.983 42.817ZM58.929 41.153C58.4437 41.153 58.0537 41.1833 57.759 41.244C57.4384 41.3133 57.1827 41.3913 56.992 41.478C56.8014 41.5647 56.667 41.6687 56.589 41.79C56.511 41.9027 56.472 42.037 56.472 42.193C56.472 42.4877 56.5544 42.6913 56.719 42.804C56.8924 42.9253 57.109 42.986 57.369 42.986C57.5337 42.986 57.6854 42.973 57.824 42.947C57.9714 42.921 58.1057 42.8733 58.227 42.804C58.383 42.7173 58.5 42.6437 58.578 42.583C58.6994 42.4877 58.8164 42.3837 58.929 42.271V41.153ZM72.8063 42.83C73.023 42.882 73.1313 43.0163 73.1313 43.233V44H70.5443V39.762C70.5443 39.3287 70.4533 39.008 70.2713 38.8C70.0893 38.5833 69.8163 38.475 69.4523 38.475C69.305 38.475 69.149 38.5053 68.9843 38.566C68.8457 38.618 68.7243 38.696 68.6203 38.8C68.5337 38.8867 68.4513 39.021 68.3733 39.203C68.3127 39.3503 68.2823 39.5367 68.2823 39.762V42.713L68.6593 42.778L68.8543 42.817L68.9323 42.83C69.149 42.882 69.2573 43.0163 69.2573 43.233V44H66.6703V39.762C66.6703 39.32 66.5793 38.995 66.3973 38.787C66.2153 38.579 65.951 38.475 65.6043 38.475C65.3703 38.475 65.1537 38.5313 64.9543 38.644C64.7723 38.748 64.586 38.9083 64.3953 39.125V42.713L64.7723 42.778L64.9673 42.817L65.0453 42.83C65.262 42.882 65.3703 43.0163 65.3703 43.233V44H61.8083V43.233C61.8083 43.0163 61.9167 42.882 62.1333 42.83L62.2113 42.817C62.2373 42.817 62.2633 42.8127 62.2893 42.804C62.324 42.7953 62.363 42.7867 62.4063 42.778L62.7833 42.713V38.618L62.4063 38.553C62.363 38.5443 62.324 38.5357 62.2893 38.527C62.2633 38.5183 62.2373 38.514 62.2113 38.514L62.1333 38.501C61.908 38.449 61.7953 38.3147 61.7953 38.098V37.331H63.7713C63.9707 37.331 64.105 37.4307 64.1743 37.63L64.2783 38.124C64.4343 37.9507 64.5557 37.8293 64.6423 37.76C64.7637 37.6647 64.9023 37.5737 65.0583 37.487C65.197 37.409 65.353 37.344 65.5263 37.292C65.665 37.2487 65.847 37.227 66.0723 37.227C66.5057 37.227 66.8523 37.3397 67.1123 37.565C67.3897 37.8077 67.5933 38.111 67.7233 38.475C67.8273 38.2497 67.9573 38.059 68.1133 37.903C68.252 37.7643 68.421 37.6387 68.6203 37.526C68.7677 37.4393 68.967 37.3657 69.2183 37.305C69.4263 37.253 69.6387 37.227 69.8553 37.227C70.228 37.227 70.553 37.2833 70.8303 37.396C71.1337 37.5173 71.3763 37.682 71.5583 37.89C71.749 38.1067 71.8963 38.371 72.0003 38.683C72.1043 38.995 72.1563 39.3547 72.1563 39.762V42.713L72.5333 42.778C72.5767 42.7867 72.6113 42.7953 72.6373 42.804C72.672 42.8127 72.7023 42.817 72.7283 42.817L72.8063 42.83Z" fill="white"/>
</svg>
