<svg width="42" height="44" viewBox="0 0 42 44" fill="none" xmlns="http://www.w3.org/2000/svg">
<path d="M16.5322 1.36133C12.6741 1.36133 8.81612 2.89886 5.88039 5.97424C0.00891817 12.125 0.00891817 22.1404 5.88039 28.2912C8.81612 31.3666 12.6645 32.9049 16.5523 32.9049C20.4402 32.9049 24.2885 31.3666 27.2243 28.2912C33.0561 22.1404 33.0555 12.125 27.184 5.97424C24.2483 2.89886 20.3903 1.36133 16.5322 1.36133ZM16.5128 3.81348C19.7659 3.81348 23.0189 5.10117 25.4786 7.7194C30.4376 12.9143 30.4374 21.3511 25.5181 26.546C20.5591 31.7409 12.5053 31.7409 7.5463 26.546C2.58729 21.3511 2.58729 12.9143 7.5463 7.7194C10.006 5.14273 13.2597 3.81348 16.5128 3.81348ZM16.5128 6.30703C13.7754 6.30703 11.1964 7.42881 9.25251 9.50677C7.38793 11.46 6.35661 13.9953 6.23759 16.7382C6.19792 17.4447 6.71381 17.9848 7.38824 18.0264H7.42775C8.06251 18.0264 8.57824 17.486 8.61792 16.821C8.69726 14.7015 9.52991 12.7481 10.9184 11.2519C12.426 9.67268 14.4102 8.80058 16.5128 8.80058C17.1872 8.80058 17.703 8.26032 17.703 7.55381C17.703 6.8473 17.1872 6.30703 16.5128 6.30703ZM9.64923 21.9745C9.33358 21.9745 9.03086 22.1059 8.80766 22.3397C8.58446 22.5735 8.45907 22.8906 8.45907 23.2213C8.45907 23.552 8.58446 23.8691 8.80766 24.1029C9.03086 24.3367 9.33358 24.4681 9.64923 24.4681C9.96489 24.4681 10.2676 24.3367 10.4908 24.1029C10.714 23.8691 10.8394 23.552 10.8394 23.2213C10.8394 22.8906 10.714 22.5735 10.4908 22.3397C10.2676 22.1059 9.96489 21.9745 9.64923 21.9745ZM28.836 28.8318C28.5335 28.8318 28.2359 28.9566 28.0177 29.206C27.5417 29.7047 27.5417 30.494 28.0177 30.9511L29.0095 31.9901C28.7715 32.4888 28.6523 33.0293 28.6523 33.6111C28.6523 34.6085 29.0092 35.5645 29.6836 36.271L34.762 41.5073C35.4761 42.2554 36.3879 42.6291 37.3004 42.6291C38.2128 42.6291 39.1254 42.2552 39.8395 41.5487C41.2281 40.0942 41.2281 37.7256 39.8395 36.271L34.762 30.9511C34.0876 30.2446 33.1749 29.8708 32.2228 29.8708C31.6674 29.8708 31.1515 29.9956 30.6754 30.245L29.6836 29.206C29.4456 28.9566 29.1385 28.8318 28.836 28.8318ZM32.2228 32.3229C32.5402 32.3229 32.8574 32.4478 33.0558 32.6971L38.0938 37.9748C38.5699 38.4735 38.5699 39.2628 38.0938 39.72C37.6177 40.2187 36.8643 40.2187 36.4279 39.72L31.3898 34.4837C31.1518 34.2343 31.0326 33.9022 31.0326 33.5697C31.0326 33.2372 31.1518 32.9049 31.3898 32.6971C31.6279 32.4478 31.9054 32.3229 32.2228 32.3229Z" fill="#D56C06" stroke="#D56C06"/>
</svg>
